<svg xmlns:xlink="http://www.w3.org/1999/xlink" xmlns="http://www.w3.org/2000/svg" version="1.0" viewBox="621.7691154422789 330.47999999999996 1151.424287856072 1141.2" style="max-height: 500px" width="1151.424287856072" height="1141.2">
  
  <rect fill-opacity="1" fill="#ffffff" height="100%" width="100%" y="0" x="0"/>
  <svg color-interpolation-filters="sRGB" preserveAspectRatio="xMidYMid meet" viewBox="0 0 340.000000 250.000000" height="1800" width="2400" y="0" x="0" xmlns:xlink="http://www.w3.org/1999/xlink" xmlns="http://www.w3.org/2000/svg" version="1.0">
    <defs><linearGradient y2="0%" x2="100%" y1="0%" x1="0%" id="92"><stop stop-color="#fa71cd" offset="0%"/> <stop stop-color="#9b59b6" offset="100%"/></linearGradient><linearGradient y2="0%" x2="100%" y1="0%" x1="0%" id="93"><stop stop-color="#f9d423" offset="0%"/> <stop stop-color="#f83600" offset="100%"/></linearGradient><linearGradient y2="0%" x2="100%" y1="0%" x1="0%" id="94"><stop stop-color="#0064d2" offset="0%"/> <stop stop-color="#1cb0f6" offset="100%"/></linearGradient><linearGradient y2="0%" x2="100%" y1="0%" x1="0%" id="95"><stop stop-color="#f00978" offset="0%"/> <stop stop-color="#3f51b1" offset="100%"/></linearGradient><linearGradient y2="0%" x2="100%" y1="0%" x1="0%" id="96"><stop stop-color="#7873f5" offset="0%"/> <stop stop-color="#ec77ab" offset="100%"/></linearGradient><linearGradient y2="0%" x2="100%" y1="0%" x1="0%" id="97"><stop stop-color="#f9d423" offset="0%"/> <stop stop-color="#e14fad" offset="100%"/></linearGradient><linearGradient y2="0%" x2="100%" y1="0%" x1="0%" id="98"><stop stop-color="#009efd" offset="0%"/> <stop stop-color="#2af598" offset="100%"/></linearGradient><linearGradient y2="0%" x2="100%" y1="0%" x1="0%" id="99"><stop stop-color="#ffcc00" offset="0%"/> <stop stop-color="#00b140" offset="100%"/></linearGradient><linearGradient y2="0%" x2="100%" y1="0%" x1="0%" id="100"><stop stop-color="#d51007" offset="0%"/> <stop stop-color="#ff8177" offset="100%"/></linearGradient><linearGradient y2="0%" x2="100%" y1="0%" x1="0%" id="102"><stop stop-color="#a2b6df" offset="0%"/> <stop stop-color="#0c3483" offset="100%"/></linearGradient><linearGradient y2="0%" x2="100%" y1="0%" x1="0%" id="103"><stop stop-color="#7ac5d8" offset="0%"/> <stop stop-color="#eea2a2" offset="100%"/></linearGradient><linearGradient y2="0%" x2="100%" y1="0%" x1="0%" id="104"><stop stop-color="#00ecbc" offset="0%"/> <stop stop-color="#007adf" offset="100%"/></linearGradient><linearGradient y2="0%" x2="100%" y1="0%" x1="0%" id="105"><stop stop-color="#b88746" offset="0%"/> <stop stop-color="#fdf5a6" offset="100%"/></linearGradient></defs> <g transform="translate(95.55500030517578,51.53227233886719)" class="bordersvg b-d1" fill="#4f939c"><g><g><rect stroke="rgb(79, 147, 156)" fill-opacity="0" height="133.77545166015625" width="148.88999938964844" y="0" x="0" class="i-icon-bg" stroke-width="3"/> </g> <g transform="translate(19.414825439453125,10)"><g fill-opacity="1" bgcolor="#ffffff" class="tp-name" fill-rule=""><g transform="scale(1)"><g><path transform="translate(-7.710000038146973, 71.38999938964844)" d="M31.88-25.98L27-25.98 27 0 7.71 0 7.71-71.39 31.1-71.39Q60.21-71.39 60.21-50.29L60.21-50.29Q60.21-37.89 48.1-31.1L48.1-31.1 68.9 0 47.02 0 31.88-25.98ZM27-56.79L27-40.48 30.62-40.48Q40.72-40.48 40.72-49.41L40.72-49.41Q40.72-56.79 30.81-56.79L30.81-56.79 27-56.79ZM117.77-15.72L117.77 0 75.39 0 75.39-71.39 117.77-71.39 117.77-55.91 94.68-55.91 94.68-44.68 116.06-44.68 116.06-29.2 94.68-29.2 94.68-15.72 117.77-15.72Z"/></g> <g transform="translate(0,74.38999938964844)" fill="#4f939c"><g transform="scale(0.94359)"><path transform="translate(-1.7200000286102295, 41.18000030517578)" d="M33.8-8.99L33.8 0 1.72 0 1.72-6.87 19.55-32.2 2.14-32.2 2.14-41.18 33.35-41.18 33.35-34.34 15.52-8.99 33.8-8.99ZM63.57-41.18L74.7-41.18 74.7-16.39Q74.7-8.31 70.12-3.87 65.55 0.56 56.93 0.56L56.93 0.56Q48.51 0.56 43.98-3.75 39.46-8.06 39.46-16.14L39.46-16.14 39.46-41.18 50.65-41.18 50.65-17.01Q50.65-12.65 52.28-10.68 53.91-8.7 57.1-8.7L57.1-8.7Q60.5-8.7 62.04-10.66 63.57-12.62 63.57-17.07L63.57-17.07 63.57-41.18ZM107.24-41.18L118.36-41.18 118.36-16.39Q118.36-8.31 113.78-3.87 109.21 0.56 100.59 0.56L100.59 0.56Q92.17 0.56 87.64-3.75 83.12-8.06 83.12-16.14L83.12-16.14 83.12-41.18 94.31-41.18 94.31-17.01Q94.31-12.65 95.94-10.68 97.57-8.7 100.76-8.7L100.76-8.7Q104.16-8.7 105.7-10.66 107.24-12.62 107.24-17.07L107.24-17.07 107.24-41.18Z"/></g></g></g></g></g></g> <g mask="url(#79286f0d-cbb1-4f29-846f-71bbf34ac621)" transform="translate(0,132.77545166015625)"><g><rect stroke="rgb(79, 147, 156)" height="14.160000801086426" width="148.88999938964844" y="0" x="0" class="i-icon-bg" stroke-width="3px"/> </g> <g transform="translate(3,3)"><g transform="translate(0,0)" fill="#ffffff" class="tp-slogan" fill-rule=""> <g transform="scale(1, 1)"><g transform="scale(1)"><path transform="translate(0.012, 8.016)" d="M2.35 0L2.35-3.05L-0.01-7.87L1.06-7.87L2.08-5.65Q2.27-5.22 2.45-4.80Q2.63-4.38 2.83-3.94L2.83-3.94L2.88-3.94Q3.08-4.38 3.29-4.80Q3.49-5.22 3.67-5.65L3.67-5.65L4.68-7.87L5.72-7.87L3.36-3.05L3.36 0L2.35 0ZM9.53 0.14L9.53 0.14Q8.78 0.14 8.17-0.14Q7.55-0.43 7.10-0.97Q6.66-1.50 6.41-2.26Q6.17-3.02 6.17-3.97L6.17-3.97Q6.17-4.92 6.41-5.67Q6.66-6.42 7.10-6.94Q7.55-7.46 8.17-7.74Q8.78-8.02 9.53-8.02L9.53-8.02Q10.27-8.02 10.89-7.73Q11.51-7.45 11.96-6.93Q12.41-6.41 12.65-5.66Q12.90-4.91 12.90-3.97L12.90-3.97Q12.90-3.02 12.65-2.26Q12.41-1.50 11.96-0.97Q11.51-0.43 10.89-0.14Q10.27 0.14 9.53 0.14ZM9.53-0.73L9.53-0.73Q10.06-0.73 10.48-0.96Q10.91-1.19 11.21-1.61Q11.52-2.04 11.69-2.63Q11.86-3.23 11.86-3.97L11.86-3.97Q11.86-4.70 11.69-5.29Q11.52-5.88 11.21-6.29Q10.91-6.70 10.48-6.92Q10.06-7.14 9.53-7.14L9.53-7.14Q9-7.14 8.57-6.92Q8.15-6.70 7.84-6.29Q7.54-5.88 7.37-5.29Q7.20-4.70 7.20-3.97L7.20-3.97Q7.20-3.23 7.37-2.63Q7.54-2.04 7.84-1.61Q8.15-1.19 8.57-0.96Q9-0.73 9.53-0.73ZM14.56-3.25L14.56-7.87L15.55-7.87L15.55-3.23Q15.55-2.52 15.70-2.04Q15.84-1.56 16.09-1.27Q16.33-0.98 16.67-0.86Q17.00-0.73 17.39-0.73L17.39-0.73Q17.78-0.73 18.12-0.86Q18.46-0.98 18.71-1.27Q18.96-1.56 19.10-2.04Q19.25-2.52 19.25-3.23L19.25-3.23L19.25-7.87L20.21-7.87L20.21-3.25Q20.21-2.30 19.99-1.66Q19.78-1.01 19.40-0.61Q19.02-0.20 18.50-0.03Q17.99 0.14 17.39 0.14L17.39 0.14Q16.79 0.14 16.27-0.03Q15.74-0.20 15.37-0.61Q14.99-1.01 14.77-1.66Q14.56-2.30 14.56-3.25L14.56-3.25ZM23.33-7.07L23.33-4.14L24.65-4.14Q25.57-4.14 26.06-4.52Q26.56-4.90 26.56-5.66L26.56-5.66Q26.56-6.44 26.06-6.76Q25.57-7.07 24.65-7.07L24.65-7.07L23.33-7.07ZM27.78 0L26.65 0L24.76-3.32L23.33-3.32L23.33 0L22.33 0L22.33-7.87L24.79-7.87Q25.39-7.87 25.90-7.76Q26.41-7.64 26.78-7.38Q27.14-7.12 27.35-6.70Q27.55-6.28 27.55-5.66L27.55-5.66Q27.55-4.74 27.07-4.19Q26.59-3.64 25.79-3.43L25.79-3.43L27.78 0ZM31.73 0L31.73-7.87L36.26-7.87L36.26-7.03L32.72-7.03L32.72-4.56L35.71-4.56L35.71-3.71L32.72-3.71L32.72-0.85L36.38-0.85L36.38 0L31.73 0ZM37.15 0L39.44-4.07L37.31-7.87L38.41-7.87L39.48-5.86Q39.64-5.58 39.77-5.32Q39.91-5.06 40.09-4.72L40.09-4.72L40.14-4.72Q40.31-5.06 40.43-5.32Q40.56-5.58 40.70-5.86L40.70-5.86L41.75-7.87L42.80-7.87L40.66-4.02L42.95 0L41.84 0L40.69-2.12Q40.54-2.41 40.37-2.72Q40.21-3.02 40.02-3.38L40.02-3.38L39.97-3.38Q39.80-3.02 39.65-2.72Q39.49-2.41 39.35-2.12L39.35-2.12L38.21 0L37.15 0ZM44.21 0L44.21-7.87L46.62-7.87Q47.27-7.87 47.81-7.75Q48.35-7.63 48.73-7.36Q49.10-7.09 49.31-6.65Q49.52-6.20 49.52-5.56L49.52-5.56Q49.52-4.93 49.31-4.48Q49.10-4.02 48.72-3.72Q48.34-3.42 47.80-3.27Q47.27-3.12 46.62-3.12L46.62-3.12L45.20-3.12L45.20 0L44.21 0ZM45.20-3.94L46.50-3.94Q47.53-3.94 48.03-4.33Q48.53-4.72 48.53-5.56L48.53-5.56Q48.53-6.41 48.02-6.74Q47.52-7.07 46.50-7.07L46.50-7.07L45.20-7.07L45.20-3.94ZM51.12 0L51.12-7.87L55.66-7.87L55.66-7.03L52.12-7.03L52.12-4.56L55.10-4.56L55.10-3.71L52.12-3.71L52.12-0.85L55.78-0.85L55.78 0L51.12 0ZM58.44-7.07L58.44-4.14L59.76-4.14Q60.68-4.14 61.18-4.52Q61.67-4.90 61.67-5.66L61.67-5.66Q61.67-6.44 61.18-6.76Q60.68-7.07 59.76-7.07L59.76-7.07L58.44-7.07ZM62.89 0L61.76 0L59.87-3.32L58.44-3.32L58.44 0L57.44 0L57.44-7.87L59.90-7.87Q60.50-7.87 61.01-7.76Q61.52-7.64 61.89-7.38Q62.26-7.12 62.46-6.70Q62.66-6.28 62.66-5.66L62.66-5.66Q62.66-4.74 62.18-4.19Q61.70-3.64 60.90-3.43L60.90-3.43L62.89 0ZM64.42 0L64.42-7.87L65.41-7.87L65.41 0L64.42 0ZM67.57 0L67.57-7.87L72.11-7.87L72.11-7.03L68.57-7.03L68.57-4.56L71.56-4.56L71.56-3.71L68.57-3.71L68.57-0.85L72.23-0.85L72.23 0L67.57 0ZM73.90 0L73.90-7.87L74.93-7.87L77.77-2.93L78.62-1.30L78.67-1.30Q78.64-1.90 78.59-2.54Q78.55-3.18 78.55-3.80L78.55-3.80L78.55-7.87L79.50-7.87L79.50 0L78.47 0L75.61-4.96L74.76-6.58L74.71-6.58Q74.76-5.98 74.80-5.36Q74.84-4.74 74.84-4.12L74.84-4.12L74.84 0L73.90 0ZM81.20-3.94L81.20-3.94Q81.20-4.88 81.47-5.64Q81.73-6.40 82.20-6.92Q82.67-7.45 83.31-7.73Q83.95-8.02 84.71-8.02L84.71-8.02Q85.43-8.02 85.97-7.72Q86.51-7.43 86.86-7.04L86.86-7.04L86.29-6.41Q85.98-6.74 85.60-6.94Q85.22-7.14 84.72-7.14L84.72-7.14Q84.16-7.14 83.70-6.92Q83.24-6.70 82.92-6.28Q82.60-5.87 82.42-5.28Q82.24-4.69 82.24-3.96L82.24-3.96Q82.24-3.22 82.41-2.62Q82.58-2.03 82.90-1.61Q83.21-1.19 83.66-0.96Q84.11-0.73 84.67-0.73L84.67-0.73Q85.25-0.73 85.67-0.96Q86.10-1.19 86.48-1.61L86.48-1.61L87.05-1.00Q86.58-0.46 85.99-0.16Q85.40 0.14 84.65 0.14L84.65 0.14Q83.90 0.14 83.27-0.13Q82.64-0.41 82.18-0.93Q81.72-1.45 81.46-2.21Q81.20-2.98 81.20-3.94ZM88.51 0L88.51-7.87L93.05-7.87L93.05-7.03L89.51-7.03L89.51-4.56L92.50-4.56L92.50-3.71L89.51-3.71L89.51-0.85L93.17-0.85L93.17 0L88.51 0ZM97.26 0L97.26-7.87L98.44-7.87L99.96-3.65L100.54-2.04L100.58-2.04L101.14-3.65L102.65-7.87L103.82-7.87L103.82 0L102.88 0L102.88-4.33Q102.88-4.86 102.92-5.50Q102.96-6.13 103.01-6.66L103.01-6.66L102.96-6.66L102.32-4.91L100.81-0.79L100.25-0.79L98.72-4.91L98.10-6.66L98.05-6.66Q98.09-6.13 98.14-5.50Q98.18-4.86 98.18-4.33L98.18-4.33L98.18 0L97.26 0ZM106.97-3.20L109.33-3.20L108.96-4.40Q108.74-5.06 108.55-5.72Q108.36-6.37 108.17-7.06L108.17-7.06L108.12-7.06Q107.94-6.37 107.75-5.72Q107.56-5.06 107.34-4.40L107.34-4.40L106.97-3.20ZM110.33 0L109.58-2.40L106.72-2.40L105.96 0L104.94 0L107.60-7.87L108.73-7.87L111.40 0L110.33 0ZM113.66 0L113.66-7.03L111.29-7.03L111.29-7.87L117.05-7.87L117.05-7.03L114.67-7.03L114.67 0L113.66 0ZM120.10 0L120.10-7.03L117.72-7.03L117.72-7.87L123.48-7.87L123.48-7.03L121.10-7.03L121.10 0L120.10 0ZM124.90 0L124.90-7.87L129.43-7.87L129.43-7.03L125.89-7.03L125.89-4.56L128.88-4.56L128.88-3.71L125.89-3.71L125.89-0.85L129.55-0.85L129.55 0L124.90 0ZM132.22-7.07L132.22-4.14L133.54-4.14Q134.46-4.14 134.95-4.52Q135.44-4.90 135.44-5.66L135.44-5.66Q135.44-6.44 134.95-6.76Q134.46-7.07 133.54-7.07L133.54-7.07L132.22-7.07ZM136.67 0L135.54 0L133.64-3.32L132.22-3.32L132.22 0L131.22 0L131.22-7.87L133.68-7.87Q134.28-7.87 134.79-7.76Q135.30-7.64 135.67-7.38Q136.03-7.12 136.24-6.70Q136.44-6.28 136.44-5.66L136.44-5.66Q136.44-4.74 135.96-4.19Q135.48-3.64 134.68-3.43L134.68-3.43L136.67 0ZM137.45-1.02L138.05-1.72Q138.47-1.27 139.04-1.00Q139.61-0.73 140.22-0.73L140.22-0.73Q141.00-0.73 141.43-1.09Q141.86-1.44 141.86-2.02L141.86-2.02Q141.86-2.32 141.76-2.53Q141.66-2.74 141.49-2.89Q141.31-3.04 141.07-3.16Q140.83-3.28 140.56-3.41L140.56-3.41L139.43-3.90Q139.15-4.02 138.86-4.19Q138.58-4.36 138.35-4.60Q138.12-4.84 137.98-5.17Q137.83-5.50 137.83-5.93L137.83-5.93Q137.83-6.37 138.02-6.76Q138.20-7.14 138.53-7.42Q138.86-7.70 139.31-7.86Q139.76-8.02 140.30-8.02L140.30-8.02Q141.01-8.02 141.61-7.75Q142.21-7.48 142.63-7.04L142.63-7.04L142.09-6.40Q141.73-6.74 141.29-6.94Q140.86-7.14 140.30-7.14L140.30-7.14Q139.64-7.14 139.24-6.83Q138.84-6.53 138.84-5.99L138.84-5.99Q138.84-5.70 138.95-5.50Q139.07-5.30 139.26-5.15Q139.45-5.00 139.68-4.89Q139.91-4.78 140.15-4.68L140.15-4.68L141.26-4.20Q141.60-4.06 141.90-3.87Q142.20-3.68 142.42-3.44Q142.63-3.19 142.76-2.86Q142.88-2.53 142.88-2.10L142.88-2.10Q142.88-1.63 142.70-1.22Q142.51-0.82 142.16-0.51Q141.82-0.20 141.32-0.03Q140.83 0.14 140.21 0.14L140.21 0.14Q139.38 0.14 138.67-0.17Q137.96-0.48 137.45-1.02L137.45-1.02Z"/></g></g></g></g></g></g><mask id="79286f0d-cbb1-4f29-846f-71bbf34ac621"><g fill="white"><rect stroke="white" height="14.160000801086426" width="148.88999938964844" y="0" x="0" class="i-icon-bg" stroke-width="3px"/> </g> <g fill="black" transform="translate(3,3)"><g transform="translate(0,0)" class="tp-slogan" fill-rule=""> <g transform="scale(1, 1)"><g transform="scale(1)"><path transform="translate(0.012, 8.016)" d="M2.35 0L2.35-3.05L-0.01-7.87L1.06-7.87L2.08-5.65Q2.27-5.22 2.45-4.80Q2.63-4.38 2.83-3.94L2.83-3.94L2.88-3.94Q3.08-4.38 3.29-4.80Q3.49-5.22 3.67-5.65L3.67-5.65L4.68-7.87L5.72-7.87L3.36-3.05L3.36 0L2.35 0ZM9.53 0.14L9.53 0.14Q8.78 0.14 8.17-0.14Q7.55-0.43 7.10-0.97Q6.66-1.50 6.41-2.26Q6.17-3.02 6.17-3.97L6.17-3.97Q6.17-4.92 6.41-5.67Q6.66-6.42 7.10-6.94Q7.55-7.46 8.17-7.74Q8.78-8.02 9.53-8.02L9.53-8.02Q10.27-8.02 10.89-7.73Q11.51-7.45 11.96-6.93Q12.41-6.41 12.65-5.66Q12.90-4.91 12.90-3.97L12.90-3.97Q12.90-3.02 12.65-2.26Q12.41-1.50 11.96-0.97Q11.51-0.43 10.89-0.14Q10.27 0.14 9.53 0.14ZM9.53-0.73L9.53-0.73Q10.06-0.73 10.48-0.96Q10.91-1.19 11.21-1.61Q11.52-2.04 11.69-2.63Q11.86-3.23 11.86-3.97L11.86-3.97Q11.86-4.70 11.69-5.29Q11.52-5.88 11.21-6.29Q10.91-6.70 10.48-6.92Q10.06-7.14 9.53-7.14L9.53-7.14Q9-7.14 8.57-6.92Q8.15-6.70 7.84-6.29Q7.54-5.88 7.37-5.29Q7.20-4.70 7.20-3.97L7.20-3.97Q7.20-3.23 7.37-2.63Q7.54-2.04 7.84-1.61Q8.15-1.19 8.57-0.96Q9-0.73 9.53-0.73ZM14.56-3.25L14.56-7.87L15.55-7.87L15.55-3.23Q15.55-2.52 15.70-2.04Q15.84-1.56 16.09-1.27Q16.33-0.98 16.67-0.86Q17.00-0.73 17.39-0.73L17.39-0.73Q17.78-0.73 18.12-0.86Q18.46-0.98 18.71-1.27Q18.96-1.56 19.10-2.04Q19.25-2.52 19.25-3.23L19.25-3.23L19.25-7.87L20.21-7.87L20.21-3.25Q20.21-2.30 19.99-1.66Q19.78-1.01 19.40-0.61Q19.02-0.20 18.50-0.03Q17.99 0.14 17.39 0.14L17.39 0.14Q16.79 0.14 16.27-0.03Q15.74-0.20 15.37-0.61Q14.99-1.01 14.77-1.66Q14.56-2.30 14.56-3.25L14.56-3.25ZM23.33-7.07L23.33-4.14L24.65-4.14Q25.57-4.14 26.06-4.52Q26.56-4.90 26.56-5.66L26.56-5.66Q26.56-6.44 26.06-6.76Q25.57-7.07 24.65-7.07L24.65-7.07L23.33-7.07ZM27.78 0L26.65 0L24.76-3.32L23.33-3.32L23.33 0L22.33 0L22.33-7.87L24.79-7.87Q25.39-7.87 25.90-7.76Q26.41-7.64 26.78-7.38Q27.14-7.12 27.35-6.70Q27.55-6.28 27.55-5.66L27.55-5.66Q27.55-4.74 27.07-4.19Q26.59-3.64 25.79-3.43L25.79-3.43L27.78 0ZM31.73 0L31.73-7.87L36.26-7.87L36.26-7.03L32.72-7.03L32.72-4.56L35.71-4.56L35.71-3.71L32.72-3.71L32.72-0.85L36.38-0.85L36.38 0L31.73 0ZM37.15 0L39.44-4.07L37.31-7.87L38.41-7.87L39.48-5.86Q39.64-5.58 39.77-5.32Q39.91-5.06 40.09-4.72L40.09-4.72L40.14-4.72Q40.31-5.06 40.43-5.32Q40.56-5.58 40.70-5.86L40.70-5.86L41.75-7.87L42.80-7.87L40.66-4.02L42.95 0L41.84 0L40.69-2.12Q40.54-2.41 40.37-2.72Q40.21-3.02 40.02-3.38L40.02-3.38L39.97-3.38Q39.80-3.02 39.65-2.72Q39.49-2.41 39.35-2.12L39.35-2.12L38.21 0L37.15 0ZM44.21 0L44.21-7.87L46.62-7.87Q47.27-7.87 47.81-7.75Q48.35-7.63 48.73-7.36Q49.10-7.09 49.31-6.65Q49.52-6.20 49.52-5.56L49.52-5.56Q49.52-4.93 49.31-4.48Q49.10-4.02 48.72-3.72Q48.34-3.42 47.80-3.27Q47.27-3.12 46.62-3.12L46.62-3.12L45.20-3.12L45.20 0L44.21 0ZM45.20-3.94L46.50-3.94Q47.53-3.94 48.03-4.33Q48.53-4.72 48.53-5.56L48.53-5.56Q48.53-6.41 48.02-6.74Q47.52-7.07 46.50-7.07L46.50-7.07L45.20-7.07L45.20-3.94ZM51.12 0L51.12-7.87L55.66-7.87L55.66-7.03L52.12-7.03L52.12-4.56L55.10-4.56L55.10-3.71L52.12-3.71L52.12-0.85L55.78-0.85L55.78 0L51.12 0ZM58.44-7.07L58.44-4.14L59.76-4.14Q60.68-4.14 61.18-4.52Q61.67-4.90 61.67-5.66L61.67-5.66Q61.67-6.44 61.18-6.76Q60.68-7.07 59.76-7.07L59.76-7.07L58.44-7.07ZM62.89 0L61.76 0L59.87-3.32L58.44-3.32L58.44 0L57.44 0L57.44-7.87L59.90-7.87Q60.50-7.87 61.01-7.76Q61.52-7.64 61.89-7.38Q62.26-7.12 62.46-6.70Q62.66-6.28 62.66-5.66L62.66-5.66Q62.66-4.74 62.18-4.19Q61.70-3.64 60.90-3.43L60.90-3.43L62.89 0ZM64.42 0L64.42-7.87L65.41-7.87L65.41 0L64.42 0ZM67.57 0L67.57-7.87L72.11-7.87L72.11-7.03L68.57-7.03L68.57-4.56L71.56-4.56L71.56-3.71L68.57-3.71L68.57-0.85L72.23-0.85L72.23 0L67.57 0ZM73.90 0L73.90-7.87L74.93-7.87L77.77-2.93L78.62-1.30L78.67-1.30Q78.64-1.90 78.59-2.54Q78.55-3.18 78.55-3.80L78.55-3.80L78.55-7.87L79.50-7.87L79.50 0L78.47 0L75.61-4.96L74.76-6.58L74.71-6.58Q74.76-5.98 74.80-5.36Q74.84-4.74 74.84-4.12L74.84-4.12L74.84 0L73.90 0ZM81.20-3.94L81.20-3.94Q81.20-4.88 81.47-5.64Q81.73-6.40 82.20-6.92Q82.67-7.45 83.31-7.73Q83.95-8.02 84.71-8.02L84.71-8.02Q85.43-8.02 85.97-7.72Q86.51-7.43 86.86-7.04L86.86-7.04L86.29-6.41Q85.98-6.74 85.60-6.94Q85.22-7.14 84.72-7.14L84.72-7.14Q84.16-7.14 83.70-6.92Q83.24-6.70 82.92-6.28Q82.60-5.87 82.42-5.28Q82.24-4.69 82.24-3.96L82.24-3.96Q82.24-3.22 82.41-2.62Q82.58-2.03 82.90-1.61Q83.21-1.19 83.66-0.96Q84.11-0.73 84.67-0.73L84.67-0.73Q85.25-0.73 85.67-0.96Q86.10-1.19 86.48-1.61L86.48-1.61L87.05-1.00Q86.58-0.46 85.99-0.16Q85.40 0.14 84.65 0.14L84.65 0.14Q83.90 0.14 83.27-0.13Q82.64-0.41 82.18-0.93Q81.72-1.45 81.46-2.21Q81.20-2.98 81.20-3.94ZM88.51 0L88.51-7.87L93.05-7.87L93.05-7.03L89.51-7.03L89.51-4.56L92.50-4.56L92.50-3.71L89.51-3.71L89.51-0.85L93.17-0.85L93.17 0L88.51 0ZM97.26 0L97.26-7.87L98.44-7.87L99.96-3.65L100.54-2.04L100.58-2.04L101.14-3.65L102.65-7.87L103.82-7.87L103.82 0L102.88 0L102.88-4.33Q102.88-4.86 102.92-5.50Q102.96-6.13 103.01-6.66L103.01-6.66L102.96-6.66L102.32-4.91L100.81-0.79L100.25-0.79L98.72-4.91L98.10-6.66L98.05-6.66Q98.09-6.13 98.14-5.50Q98.18-4.86 98.18-4.33L98.18-4.33L98.18 0L97.26 0ZM106.97-3.20L109.33-3.20L108.96-4.40Q108.74-5.06 108.55-5.72Q108.36-6.37 108.17-7.06L108.17-7.06L108.12-7.06Q107.94-6.37 107.75-5.72Q107.56-5.06 107.34-4.40L107.34-4.40L106.97-3.20ZM110.33 0L109.58-2.40L106.72-2.40L105.96 0L104.94 0L107.60-7.87L108.73-7.87L111.40 0L110.33 0ZM113.66 0L113.66-7.03L111.29-7.03L111.29-7.87L117.05-7.87L117.05-7.03L114.67-7.03L114.67 0L113.66 0ZM120.10 0L120.10-7.03L117.72-7.03L117.72-7.87L123.48-7.87L123.48-7.03L121.10-7.03L121.10 0L120.10 0ZM124.90 0L124.90-7.87L129.43-7.87L129.43-7.03L125.89-7.03L125.89-4.56L128.88-4.56L128.88-3.71L125.89-3.71L125.89-0.85L129.55-0.85L129.55 0L124.90 0ZM132.22-7.07L132.22-4.14L133.54-4.14Q134.46-4.14 134.95-4.52Q135.44-4.90 135.44-5.66L135.44-5.66Q135.44-6.44 134.95-6.76Q134.46-7.07 133.54-7.07L133.54-7.07L132.22-7.07ZM136.67 0L135.54 0L133.64-3.32L132.22-3.32L132.22 0L131.22 0L131.22-7.87L133.68-7.87Q134.28-7.87 134.79-7.76Q135.30-7.64 135.67-7.38Q136.03-7.12 136.24-6.70Q136.44-6.28 136.44-5.66L136.44-5.66Q136.44-4.74 135.96-4.19Q135.48-3.64 134.68-3.43L134.68-3.43L136.67 0ZM137.45-1.02L138.05-1.72Q138.47-1.27 139.04-1.00Q139.61-0.73 140.22-0.73L140.22-0.73Q141.00-0.73 141.43-1.09Q141.86-1.44 141.86-2.02L141.86-2.02Q141.86-2.32 141.76-2.53Q141.66-2.74 141.49-2.89Q141.31-3.04 141.07-3.16Q140.83-3.28 140.56-3.41L140.56-3.41L139.43-3.90Q139.15-4.02 138.86-4.19Q138.58-4.36 138.35-4.60Q138.12-4.84 137.98-5.17Q137.83-5.50 137.83-5.93L137.83-5.93Q137.83-6.37 138.02-6.76Q138.20-7.14 138.53-7.42Q138.86-7.70 139.31-7.86Q139.76-8.02 140.30-8.02L140.30-8.02Q141.01-8.02 141.61-7.75Q142.21-7.48 142.63-7.04L142.63-7.04L142.09-6.40Q141.73-6.74 141.29-6.94Q140.86-7.14 140.30-7.14L140.30-7.14Q139.64-7.14 139.24-6.83Q138.84-6.53 138.84-5.99L138.84-5.99Q138.84-5.70 138.95-5.50Q139.07-5.30 139.26-5.15Q139.45-5.00 139.68-4.89Q139.91-4.78 140.15-4.68L140.15-4.68L141.26-4.20Q141.60-4.06 141.90-3.87Q142.20-3.68 142.42-3.44Q142.63-3.19 142.76-2.86Q142.88-2.53 142.88-2.10L142.88-2.10Q142.88-1.63 142.70-1.22Q142.51-0.82 142.16-0.51Q141.82-0.20 141.32-0.03Q140.83 0.14 140.21 0.14L140.21 0.14Q139.38 0.14 138.67-0.17Q137.96-0.48 137.45-1.02L137.45-1.02Z"/></g></g></g></g></mask><defs/>
  </svg>
</svg>